<svg id="visual" viewBox="0 0 900 600" width="900" height="600" xmlns="http://www.w3.org/2000/svg" xmlns:xlink="http://www.w3.org/1999/xlink" version="1.1"><g transform="translate(523.369447921092 311.47560761994873)"><path d="M143.2 -189.8C180.1 -139.7 200.9 -89.4 211.1 -36.5C221.3 16.5 221.1 72 197.8 116.1C174.6 160.2 128.3 192.9 72.9 222.7C17.6 252.5 -47 279.4 -100.2 264.6C-153.4 249.9 -195.4 193.4 -250.6 129.4C-305.9 65.3 -374.5 -6.4 -363 -62.6C-351.4 -118.7 -259.6 -159.3 -185.7 -203C-111.8 -246.6 -55.9 -293.3 -1.4 -291.7C53.1 -290 106.3 -240 143.2 -189.8" fill="#4c21af"></path></g></svg>