<svg id="visual" viewBox="0 0 900 600" width="900" height="600" xmlns="http://www.w3.org/2000/svg" xmlns:xlink="http://www.w3.org/1999/xlink" version="1.1"><path d="M0 145L21.5 137.7C43 130.3 86 115.7 128.8 122C171.7 128.3 214.3 155.7 257.2 171.2C300 186.7 343 190.3 385.8 179.5C428.7 168.7 471.3 143.3 514.2 147.2C557 151 600 184 642.8 196C685.7 208 728.3 199 771.2 177.7C814 156.3 857 122.7 878.5 105.8L900 89L900 0L878.5 0C857 0 814 0 771.2 0C728.3 0 685.7 0 642.8 0C600 0 557 0 514.2 0C471.3 0 428.7 0 385.8 0C343 0 300 0 257.2 0C214.3 0 171.7 0 128.8 0C86 0 43 0 21.5 0L0 0Z" fill="#7537A6" stroke-linecap="round" stroke-linejoin="miter"></path></svg>