<svg id="visual" viewBox="0 0 900 600" width="900" height="600" xmlns="http://www.w3.org/2000/svg" xmlns:xlink="http://www.w3.org/1999/xlink" version="1.1"><path d="M0 377L21.5 375.2C43 373.3 86 369.7 128.8 368C171.7 366.3 214.3 366.7 257.2 376.7C300 386.7 343 406.3 385.8 414.8C428.7 423.3 471.3 420.7 514.2 422.7C557 424.7 600 431.3 642.8 434.5C685.7 437.7 728.3 437.3 771.2 433C814 428.7 857 420.3 878.5 416.2L900 412L900 601L878.5 601C857 601 814 601 771.2 601C728.3 601 685.7 601 642.8 601C600 601 557 601 514.2 601C471.3 601 428.7 601 385.8 601C343 601 300 601 257.2 601C214.3 601 171.7 601 128.8 601C86 601 43 601 21.5 601L0 601Z" fill="#7537a6"></path><path d="M0 418L21.5 427C43 436 86 454 128.8 463.2C171.7 472.3 214.3 472.7 257.2 468.7C300 464.7 343 456.3 385.8 457.5C428.7 458.7 471.3 469.3 514.2 469C557 468.7 600 457.3 642.8 451C685.7 444.7 728.3 443.3 771.2 444.2C814 445 857 448 878.5 449.5L900 451L900 601L878.5 601C857 601 814 601 771.2 601C728.3 601 685.7 601 642.8 601C600 601 557 601 514.2 601C471.3 601 428.7 601 385.8 601C343 601 300 601 257.2 601C214.3 601 171.7 601 128.8 601C86 601 43 601 21.5 601L0 601Z" fill="#6d31a8"></path><path d="M0 490L21.5 482C43 474 86 458 128.8 454.2C171.7 450.3 214.3 458.7 257.2 460.2C300 461.7 343 456.3 385.8 452.5C428.7 448.7 471.3 446.3 514.2 445.2C557 444 600 444 642.8 447.8C685.7 451.7 728.3 459.3 771.2 467.8C814 476.3 857 485.7 878.5 490.3L900 495L900 601L878.5 601C857 601 814 601 771.2 601C728.3 601 685.7 601 642.8 601C600 601 557 601 514.2 601C471.3 601 428.7 601 385.8 601C343 601 300 601 257.2 601C214.3 601 171.7 601 128.8 601C86 601 43 601 21.5 601L0 601Z" fill="#642baa"></path><path d="M0 524L21.5 525.3C43 526.7 86 529.3 128.8 528C171.7 526.7 214.3 521.3 257.2 516.3C300 511.3 343 506.7 385.8 503.3C428.7 500 471.3 498 514.2 496.8C557 495.7 600 495.3 642.8 499C685.7 502.7 728.3 510.3 771.2 516.3C814 522.3 857 526.7 878.5 528.8L900 531L900 601L878.5 601C857 601 814 601 771.2 601C728.3 601 685.7 601 642.8 601C600 601 557 601 514.2 601C471.3 601 428.7 601 385.8 601C343 601 300 601 257.2 601C214.3 601 171.7 601 128.8 601C86 601 43 601 21.5 601L0 601Z" fill="#5926ac"></path><path d="M0 551L21.5 547.7C43 544.3 86 537.7 128.8 538.3C171.7 539 214.3 547 257.2 546.8C300 546.7 343 538.3 385.8 539.7C428.7 541 471.3 552 514.2 556.3C557 560.7 600 558.3 642.8 558.7C685.7 559 728.3 562 771.2 564.2C814 566.3 857 567.7 878.5 568.3L900 569L900 601L878.5 601C857 601 814 601 771.2 601C728.3 601 685.7 601 642.8 601C600 601 557 601 514.2 601C471.3 601 428.7 601 385.8 601C343 601 300 601 257.2 601C214.3 601 171.7 601 128.8 601C86 601 43 601 21.5 601L0 601Z" fill="#4c21af"></path></svg>