<svg id="visual" viewBox="0 0 900 600" width="900" height="600" xmlns="http://www.w3.org/2000/svg" xmlns:xlink="http://www.w3.org/1999/xlink" version="1.1"><path d="M0 465L25 469.2C50 473.3 100 481.7 150 473.7C200 465.7 250 441.3 300 420.8C350 400.3 400 383.7 450 376C500 368.3 550 369.7 600 381.2C650 392.7 700 414.3 750 419.7C800 425 850 414 875 408.5L900 403L900 601L875 601C850 601 800 601 750 601C700 601 650 601 600 601C550 601 500 601 450 601C400 601 350 601 300 601C250 601 200 601 150 601C100 601 50 601 25 601L0 601Z" fill="#4c21af" stroke-linecap="round" stroke-linejoin="miter"></path></svg>