<svg id="visual" viewBox="0 0 900 600" width="900" height="600" xmlns="http://www.w3.org/2000/svg" xmlns:xlink="http://www.w3.org/1999/xlink" version="1.1"><path d="M0 373L129 373L129 332L257 332L257 365L386 365L386 320L514 320L514 374L643 374L643 298L771 298L771 300L900 300L900 291L900 601L900 601L771 601L771 601L643 601L643 601L514 601L514 601L386 601L386 601L257 601L257 601L129 601L129 601L0 601Z" fill="#4c21af"></path><path d="M0 362L129 362L129 420L257 420L257 376L386 376L386 406L514 406L514 430L643 430L643 440L771 440L771 435L900 435L900 400L900 601L900 601L771 601L771 601L643 601L643 601L514 601L514 601L386 601L386 601L257 601L257 601L129 601L129 601L0 601Z" fill="#642baa"></path><path d="M0 457L129 457L129 545L257 545L257 546L386 546L386 452L514 452L514 511L643 511L643 475L771 475L771 482L900 482L900 511L900 601L900 601L771 601L771 601L643 601L643 601L514 601L514 601L386 601L386 601L257 601L257 601L129 601L129 601L0 601Z" fill="#7537a6"></path></svg>