<svg id="visual" viewBox="0 0 900 600" width="900" height="600" xmlns="http://www.w3.org/2000/svg" xmlns:xlink="http://www.w3.org/1999/xlink" version="1.1"><rect x="0" y="0" width="900" height="600" fill="#fff"></rect><path d="M0 453L37.5 440.2C75 427.3 150 401.7 225 386.7C300 371.7 375 367.3 450 381.5C525 395.7 600 428.3 675 430C750 431.7 825 402.3 862.5 387.7L900 373L900 601L862.5 601C825 601 750 601 675 601C600 601 525 601 450 601C375 601 300 601 225 601C150 601 75 601 37.5 601L0 601Z" fill="#4c21af" stroke-linecap="round" stroke-linejoin="miter"></path></svg>